PathFileType	4	(X/Y/Z)	C:\Users\Basilio\Documents\Thesis Gigler\squatting_fais\c3dfiles\019\SLS_front_pre5\markers_experimental.trc
DataRate	CameraRate	NumFrames	NumMarkers	Units	OrigDataRate	OrigDataStartFrame	OrigNumFrames
200.000000	200.000000	4	59	mm	200.000000	956	1531
Frame#	Time	FHD			LBHD			RBHD			C7			T10			CLAV			LSHO			LUUPA			LMUPA			LDUPA			LLEP			LMEP			LRAD			LUL			LRFIN			RSHO			RUPA1			RMUPA			RDUPA			RLEP			RMEP			RRAD			RUL			RUFIN			LASI			RASI			USACR			LSACR			RSACR			LTHI1			LTHI2			LTHI3			LTHI4			LLFC			LTIB1			LTIB2			LTIB3			LTIB4			LLMAL			LMMAL			LHEE			LMT1			LMT2			LMT5			RTHI3			RTHI4			RLFC			RTIB1			RTIB2			RTIB3			RTIB4			RLMAL			RMMAL			RHEE			RMT1			RMT2			RMT5			RTHI			RTHI2			
		X1	Y1	Z1	X2	Y2	Z2	X3	Y3	Z3	X4	Y4	Z4	X5	Y5	Z5	X6	Y6	Z6	X7	Y7	Z7	X8	Y8	Z8	X9	Y9	Z9	X10	Y10	Z10	X11	Y11	Z11	X12	Y12	Z12	X13	Y13	Z13	X14	Y14	Z14	X15	Y15	Z15	X16	Y16	Z16	X17	Y17	Z17	X18	Y18	Z18	X19	Y19	Z19	X20	Y20	Z20	X21	Y21	Z21	X22	Y22	Z22	X23	Y23	Z23	X24	Y24	Z24	X25	Y25	Z25	X26	Y26	Z26	X27	Y27	Z27	X28	Y28	Z28	X29	Y29	Z29	X30	Y30	Z30	X31	Y31	Z31	X32	Y32	Z32	X33	Y33	Z33	X34	Y34	Z34	X35	Y35	Z35	X36	Y36	Z36	X37	Y37	Z37	X38	Y38	Z38	X39	Y39	Z39	X40	Y40	Z40	X41	Y41	Z41	X42	Y42	Z42	X43	Y43	Z43	X44	Y44	Z44	X45	Y45	Z45	X46	Y46	Z46	X47	Y47	Z47	X48	Y48	Z48	X49	Y49	Z49	X50	Y50	Z50	X51	Y51	Z51	X52	Y52	Z52	X53	Y53	Z53	X54	Y54	Z54	X55	Y55	Z55	X56	Y56	Z56	X57	Y57	Z57	X58	Y58	Z58	X59	Y59	Z59	

957	4.78	-162.9639739990235	1396.735717773438	-626.5346679687501	-290.8530578613282	1374.6982421875	-772.4558715820315	-297.4306030273438	1368.55126953125	-632.6464233398439	-345.8731994628907	1235.704711914063	-694.7735595703126	-510.7408447265626	999.7780761718752	-712.1670532226564	nan	nan	nan	-265.2614440917969	1235.465576171875	-811.759948730469	-147.2367401123047	1216.236450195313	-865.5001220703127	-119.5614471435547	1200.492065429688	-823.2501220703127	-81.35881805419923	1212.5087890625	-867.0420532226565	-10.18539619445801	1190.235961914063	-903.0681152343752	-12.57735633850098	1130.824462890625	-898.4295654296877	239.9669036865235	1178.41748046875	-822.2940063476565	237.6272125244141	1188.6318359375	-888.7866210937502	309.3017883300782	1197	-818.011657714844	-256.2850952148438	1231.22998046875	-593.6293334960939	-150.9509582519532	1187.01318359375	-483.510223388672	-128.3990325927735	1207.015625	-523.0712280273439	-81.93493652343751	1182.899658203125	-484.8247985839845	-5.307313442230225	1181.183227539063	-498.8110656738282	-12.54310131072998	1120.629516601563	-501.9019165039064	229.7139739990235	1190.366088867188	-590.9567260742189	242.6438446044922	1204.08935546875	-527.2736816406251	313.5548400878907	1209.044799804688	-597.9013061523439	-447.0947570800782	784.362243652344	-838.5105590820315	-441.8797302246095	765.8856201171876	-635.1289672851564	-580.6434326171876	862.243103027344	-730.4662475585939	-595.1466674804689	833.3808593750002	-757.8726806640626	-594.1136474609376	832.0718994140627	-701.8970947265626	-348.8538818359376	636.8015747070314	-928.1933593750002	-263.5683288574219	643.4600830078126	-921.257019042969	-250.3549804687501	684.6939086914064	-900.2879028320315	-223.505844116211	597.8305664062501	-912.8222656250002	-143.0552520751953	550.1130981445314	-891.663269042969	-20.43498611450196	468.9702453613282	-859.611022949219	-44.50289154052735	400.7327270507814	-910.968933105469	-11.39840793609619	418.1802368164064	-887.9151000976565	29.35375213623048	350.2393798828126	-851.7503662109377	39.29081344604493	206.6005859375001	-873.494079589844	52.98842239379884	222.1311340332032	-793.651550292969	-7.736154079437258	157.7003326416016	-818.3152465820315	196.9318847656251	190.8613891601563	-798.9761352539065	202.8535919189454	186.4324340820313	-837.9492187500002	168.3137359619141	146.9683990478516	-885.8085937500002	-329.2170715332032	642.7108154296876	-591.3624267578126	-291.6285400390626	547.7917480468751	-577.1303710937501	-197.2076568603516	433.5625915527345	-624.8840942382814	-210.7171478271485	276.7906799316407	-707.1661376953126	-292.0375976562501	220.7134552001954	-655.9360351562501	-263.7576293945313	209.5488433837891	-692.6061401367189	-292.4847106933594	183.8883819580078	-737.4418334960939	-382.7937622070313	124.5242691040039	-695.7224121093751	-364.5615844726563	135.4403228759766	-773.3818359375002	-455.6722106933595	106.4171447753907	-755.6500244140626	-256.4457702636719	55.7110061645508	-774.6940917968752	-249.1824340820313	52.8712730407715	-732.7625732421876	-295.0000305175782	48.24494934082033	-675.9312133789064	-408.1780395507814	611.5166015625001	-564.2619018554689	-342.5410156250001	613.3865356445314	-574.5488281250001	
958	4.785	-162.947982788086	1397.42919921875	-626.7227783203126	-290.8482360839844	1375.552368164063	-772.3472290039065	-297.5136108398438	1369.53271484375	-632.6667480468751	-346.1984558105469	1236.599243164063	-694.8093261718751	-510.7933654785157	1000.583740234375	-712.3353271484376	nan	nan	nan	-265.4057617187501	1236.279174804688	-811.7843017578127	-147.2668762207032	1217.033813476563	-865.4724121093752	-120.3790130615235	1200.809692382813	-823.3790283203127	-81.3156204223633	1213.192016601563	-866.937683105469	-10.29076766967774	1190.998413085938	-903.0967407226565	-12.6045560836792	1131.60205078125	-898.4643554687502	239.7108001708985	1179.18310546875	-822.1665649414065	236.7650909423829	1189.253784179688	-888.2949829101565	309.3248596191407	1197.598510742188	-817.5620727539065	-256.3209533691407	1231.975219726563	-593.7329101562501	-151.2409362792969	1187.83154296875	-483.3889770507814	-128.5672454833985	1207.810913085938	-522.8727416992189	-82.07802581787111	1183.591674804688	-484.7168579101564	-5.495960712432862	1181.813110351563	-498.635467529297	-12.81350994110108	1121.2705078125	-501.9248352050782	229.6657714843751	1191.025634765625	-590.8621826171876	242.6352691650391	1204.619262695313	-527.0466308593751	313.0961914062501	1209.647827148438	-597.3604125976564	-446.8354797363282	784.9763793945315	-838.7481689453127	-441.8330993652345	766.6650390625001	-635.3829345703126	-580.4976806640626	863.0193481445315	-730.6940917968751	-595.0405883789064	834.167419433594	-758.0219116210939	-593.9094848632814	832.861755371094	-702.1951293945314	-348.7945556640626	637.4096069335939	-928.311706542969	-263.4028930664063	644.2177734375001	-921.7619628906252	-250.2698516845704	685.2390747070314	-900.5737915039065	-223.5607910156251	598.5197753906251	-913.0692138671877	-142.9903411865235	550.6560668945314	-891.816589355469	-20.48383522033692	469.2684631347657	-859.703308105469	-44.83897018432618	401.0307922363282	-910.9869384765627	-11.67695045471192	418.4037475585939	-887.9417724609377	29.11630630493165	350.4950866699219	-851.738464355469	38.5948829650879	206.8099060058594	-873.3050537109377	52.31604385375978	222.4950103759766	-793.5456542968752	-8.816564559936525	158.5175933837891	-817.805847167969	196.1624145507813	190.5243682861328	-798.5438232421877	202.0466766357422	185.8516998291016	-837.510681152344	167.2142791748047	146.6439666748047	-885.286315917969	-328.8506469726563	643.2314453125001	-591.3161010742189	-291.5992736816407	548.0832519531251	-577.0921630859376	-197.4687042236329	433.8181762695314	-624.9093017578126	-210.9208221435547	276.9776916503907	-707.2013549804689	-292.1456604003907	220.8306732177735	-656.0145263671876	-263.7366333007813	209.6185760498047	-692.5825195312501	-292.6317749023438	183.9532165527344	-737.3494262695314	-382.8321228027344	124.5625381469727	-695.7411499023439	-364.6262817382813	135.4712829589844	-773.3894653320315	-455.6654357910157	106.4741363525391	-755.6317749023439	-256.4390563964844	55.74399185180665	-774.7215576171877	-249.1549530029297	52.8695411682129	-732.9049072265626	-294.9404296875001	48.2323684692383	-675.9537963867189	-408.1299743652345	611.9874267578126	-564.4186401367189	-342.3892211914063	613.8460693359376	-574.7357177734376	
959	4.79	-163.0389709472657	1398.295043945313	-626.7130737304689	-290.7647094726563	1376.403076171875	-772.415954589844	-297.4714355468751	1370.427978515625	-632.7467651367189	-346.3425598144532	1237.450439453125	-694.8715209960939	-510.6889648437501	1001.350769042969	-712.4188232421876	nan	nan	nan	-265.5046997070313	1237.051025390625	-812.012634277344	-147.422592163086	1217.949829101563	-865.5425415039065	-120.3722763061524	1201.611083984375	-823.1872558593752	-81.38855743408205	1214.020141601563	-866.9150390625002	-10.21957206726074	1191.883422851563	-902.9882812500002	-12.68262577056885	1132.490234375	-898.4156494140627	239.5906524658204	1179.92626953125	-821.9803466796877	236.2362976074219	1190.114379882813	-889.1722412109377	309.2046813964844	1198.302001953125	-817.1892089843752	-256.7377014160157	1233.120727539063	-593.6926879882814	-151.4116516113282	1188.699340820313	-483.2962036132814	-128.7001953125	1208.550415039063	-522.9324951171876	-82.22316741943361	1184.380004882813	-484.684783935547	-5.575810432434083	1182.547607421875	-498.566131591797	-13.00390529632569	1121.932983398438	-501.4996948242189	229.5219268798829	1191.758422851563	-590.5521850585939	241.9945831298829	1205.679931640625	-526.5205688476564	312.7349853515626	1210.62255859375	-597.3640747070314	-446.6771545410157	785.6928710937502	-838.9492797851565	-441.6879882812501	767.4994506835939	-635.5986328125001	-580.4649047851564	863.7856445312502	-730.8461914062501	-594.6248168945314	834.9654541015627	-758.1945800781251	-593.8159790039064	833.5530395507815	-702.4550170898439	-348.8574523925782	638.0246582031251	-928.4907836914065	-263.2596130371094	644.7172851562501	-921.9263305664065	-250.1808471679688	685.8152465820314	-900.8997192382815	-223.4941101074219	599.0095825195314	-913.1606445312502	-142.9434814453125	551.1173706054689	-891.9517822265627	-20.62705421447754	469.5269775390626	-859.8113403320315	-45.07091903686524	401.352508544922	-910.9210205078127	-11.88845634460449	418.7386779785157	-888.0115966796877	28.84930419921876	350.7080993652344	-851.7187500000002	37.97961807250977	207.1681365966797	-873.073913574219	52.05241775512697	222.8865051269532	-793.2806396484377	-9.48336696624756	159.06103515625	-817.6971435546877	195.3135833740235	190.0354766845703	-798.1225585937502	201.4131317138672	185.3411865234375	-837.1306152343752	166.3397369384766	146.1880798339844	-884.8198242187502	-328.5668334960938	643.7144775390626	-591.3583374023439	-291.6353759765626	548.4379272460939	-577.1930541992189	-197.7258605957032	434.0055541992189	-625.0891113281251	-210.9801025390626	277.2504272460938	-707.1218261718751	-292.2200927734376	220.9052734375001	-655.9492797851564	-263.9407958984376	209.750228881836	-692.5994873046876	-292.6044006347657	184.0535278320313	-737.3276367187501	-382.8498229980469	124.5663833618164	-695.7402343750001	-364.6527404785157	135.4634857177735	-773.4221191406252	-455.6668395996095	106.4646224975586	-755.6251831054689	-256.3382568359376	55.73214721679689	-774.6463012695315	-249.1002044677735	52.84033203125001	-732.8656616210939	-294.9545898437501	48.20491027832033	-675.9118041992189	-408.0159301757814	612.5819091796876	-564.6251220703126	-342.3364257812501	614.3172607421876	-574.8681640625001	
960	4.795	-163.072738647461	1399.328857421875	-626.7286376953126	-290.3713378906251	1377.07470703125	-772.587097167969	-297.5106506347657	1371.339599609375	-632.8330688476564	-346.3371276855469	1238.260375976563	-694.9598388671876	-510.544647216797	1002.063903808594	-712.6236572265626	nan	nan	nan	-265.8002319335938	1237.993408203125	-812.1063232421877	-147.4614410400391	1218.815551757813	-865.534118652344	-120.5337448120117	1202.46826171875	-823.3699340820315	-81.54049682617189	1214.913696289063	-866.9094238281252	-10.40361976623535	1192.705810546875	-903.021423339844	-12.77295589447022	1133.33154296875	-898.4976806640627	239.5169830322266	1180.879516601563	-821.7744750976565	235.3935089111329	1190.986328125	-889.8297119140627	309.1099548339844	1199.0400390625	-816.976989746094	-256.8504028320313	1234.040893554688	-593.8767089843751	-151.5004425048828	1189.408081054688	-483.2923889160157	-128.6979217529297	1209.358276367188	-522.8426513671876	-82.3540725708008	1185.224853515625	-484.6860656738282	-5.727585315704347	1183.384887695313	-498.3729553222657	-12.91513347625733	1122.8359375	-501.4468688964845	229.6455230712891	1192.483032226563	-590.3403930664064	242.2690124511719	1206.327392578125	-526.6847534179689	313.2527160644532	1211.152709960938	-597.2075195312501	-446.5822753906251	786.3863525390627	-839.150085449219	-441.6235961914064	768.1859130859377	-635.8026733398439	-580.3304443359376	864.5026855468752	-731.0676879882814	-594.5198364257814	835.653503417969	-758.4465332031251	-593.7814331054689	834.3356933593752	-702.5050659179689	-348.7219238281251	638.6542358398439	-928.637390136719	-263.3082580566407	645.1434326171876	-921.8262329101565	-249.9567260742188	686.4006958007814	-901.1374511718752	-223.3202056884766	599.4135131835939	-913.378112792969	-142.884262084961	551.5989379882814	-892.0443115234377	-20.73209381103516	469.9156188964845	-859.9446411132815	-45.33347320556641	401.7214355468751	-910.9539184570315	-12.16772556304932	419.1512756347657	-888.1143188476565	28.62723350524903	350.9808654785157	-851.6590576171877	37.4089698791504	207.5017547607422	-872.9717407226565	51.24045181274415	223.2628173828126	-793.2542724609377	-10.18089866638184	159.8148651123047	-817.4879150390627	194.6988983154297	189.5929870605469	-797.6074218750002	200.9581909179688	184.8635711669922	-836.7412109375002	165.5088958740235	145.6507415771485	-884.3713378906252	-328.6001281738282	644.2167358398439	-591.6907958984376	-291.6902465820313	548.8526611328126	-577.3348999023439	-197.9117889404297	434.1586914062501	-625.1197509765626	-211.1184997558594	277.3690795898438	-707.0492553710939	-292.3222656250001	221.0023498535157	-655.9743652343751	-264.0025634765626	209.8280029296876	-692.5620727539064	-292.6995544433594	184.093002319336	-737.3189086914064	-382.7926025390626	124.5663452148438	-695.7839965820314	-364.6004028320313	135.5066680908203	-773.430847167969	-455.587127685547	106.4243087768555	-755.6072387695314	-256.3529052734376	55.70046234130861	-774.645446777344	-249.1881866455079	52.86819076538087	-732.7688598632814	-294.9846801757813	48.22925186157228	-675.9089355468751	-407.9900512695314	613.3818359375001	-564.8057861328126	-342.3442382812501	614.8100585937501	-574.9249267578126	
